<?xml version="1.0" standalone="no"?><!DOCTYPE svg PUBLIC "-//W3C//DTD SVG 1.1//EN" "http://www.w3.org/Graphics/SVG/1.1/DTD/svg11.dtd"><svg t="1742543116227" class="icon" viewBox="0 0 1024 1024" version="1.1" xmlns="http://www.w3.org/2000/svg" p-id="16174" xmlns:xlink="http://www.w3.org/1999/xlink" width="200" height="200"><path d="M305.398528 826.88c89.6 0 115.2 56.32 117.76 92.16 38.4 5.12 76.8 7.68 117.76 7.68 35.84 0 74.24-2.56 112.64-7.68-5.12-33.28 17.92-92.16 115.2-94.72 40.96 0 71.68 12.8 89.6 30.72 25.6-15.36 48.64-35.84 66.56-56.32 48.64-61.44 53.76-151.04 53.76-238.08-17.92 15.36-40.96 23.04-61.44 23.04-56.32 0-99.84-43.52-99.84-102.4s43.52-104.96 99.84-104.96c15.36 0 30.72 5.12 43.52 12.8-40.96-148.48-151.04-302.08-248.32-296.96-43.52 2.56-94.72 64-122.88 58.88-30.72-5.12-61.44-2.56-92.16-2.56-66.56 0-64-69.12-138.24-53.76-66.56 15.36-122.88 66.56-168.96 133.12 2.56 25.6 0 53.76 0 87.04 0 94.72-46.08 192-89.6 199.68v7.68c0 92.16 5.12 189.44 56.32 253.44 20.48 23.04 43.52 46.08 71.68 61.44 12.8 0 38.4-10.24 76.8-10.24z m30.72 51.2v53.76h-17.92v-53.76h-20.48v53.76h-17.92v-53.76h-20.48v53.76H218.358528c-23.04 0-23.04-92.16 87.04-92.16 94.72 0 110.08 92.16 94.72 92.16h-46.08v-53.76h-17.92z m74.24 66.56H205.558528c-15.36 0-25.6-40.96-2.56-74.24-28.16-17.92-53.76-40.96-74.24-66.56-56.32-69.12-61.44-171.52-61.44-271.36v-17.92C31.478528 486.4 0.758528 394.24 0.758528 312.32 0.758528 212.48-14.601472 153.6 92.918528 156.16c48.64 0 71.68 15.36 81.92 40.96 46.08-61.44 102.4-107.52 163.84-122.88 79.36-17.92 76.8 56.32 148.48 56.32 33.28 0 66.56-2.56 99.84 2.56 30.72 5.12 84.48-61.44 130.56-64 115.2-7.68 240.64 184.32 273.92 355.84 17.92 20.48 30.72 43.52 33.28 61.44 0 12.8-7.68 33.28-23.04 51.2 0 102.4 0 209.92-56.32 281.6-20.48 25.6-43.52 46.08-74.24 61.44 17.92 30.72 10.24 64-2.56 64h-194.56c-46.08 7.68-92.16 10.24-138.24 10.24-40.96 0-84.48-2.56-125.44-10.24z m386.56-66.56v53.76h-17.92v-53.76h-20.48v53.76h-17.92v-53.76h-20.48v53.76h-40.96c-23.04 0-23.04-92.16 87.04-92.16 94.72 0 110.08 92.16 94.72 92.16h-46.08v-53.76h-17.92z m40.96-353.28l20.48-12.8 56.32-2.56v-15.36l-56.32 2.56-28.16 12.8c-2.56-7.68-2.56-15.36-2.56-25.6v-15.36l28.16-15.36 48.64-2.56V435.2l-48.64 2.56-23.04 10.24c12.8-30.72 40.96-51.2 76.8-51.2 48.64 0 94.72 61.44 97.28 89.6 2.56 28.16-48.64 87.04-97.28 87.04-30.72 0-58.88-20.48-71.68-48.64zM136.438528 186.88c43.52 17.92 33.28 71.68 33.28 140.8 0 87.04-43.52 176.64-79.36 176.64-35.84 0-74.24-99.84-74.24-189.44 0-69.12-7.68-115.2 33.28-130.56v51.2h17.92V179.2h20.48v46.08h17.92V179.2c5.12 0 10.24 0 15.36 2.56v53.76h17.92V186.88z" fill="#d4237a" p-id="16175"></path><path d="M535.798528 355.84c17.92 0 33.28 7.68 33.28 20.48 0 10.24-10.24 15.36-25.6 17.92 2.56 15.36 17.92 25.6 33.28 25.6 10.24 0 20.48-5.12 28.16-12.8 12.8-15.36 20.48-12.8 17.92 0-7.68 15.36-25.6 25.6-43.52 25.6s-30.72-7.68-40.96-20.48c-7.68 12.8-23.04 23.04-43.52 23.04-20.48 0-35.84-10.24-43.52-25.6-5.12-12.8 2.56-15.36 17.92 0 5.12 7.68 15.36 12.8 28.16 12.8 17.92 0 33.28-12.8 33.28-30.72-15.36-2.56-25.6-10.24-25.6-17.92-2.56-10.24 12.8-17.92 30.72-17.92zM302.838528 471.04l84.48-48.64 7.68 12.8-84.48 46.08-7.68-10.24z m81.92-74.24l-87.04-43.52 7.68-12.8 87.04 43.52-7.68 12.8z m-148.48 5.12h145.92v15.36H236.278528v-15.36zM761.078528 471.04l-84.48-48.64-7.68 12.8 84.48 46.08 7.68-10.24z m-81.92-74.24l87.04-43.52-7.68-12.8-87.04 43.52 7.68 12.8z m148.48 5.12h-145.92v15.36h145.92v-15.36zM384.758528 291.84c33.28 0 58.88 25.6 61.44 56.32 0 2.56-7.68 2.56-10.24 2.56-5.12 0-10.24 0-12.8-2.56 0-20.48-17.92-35.84-38.4-35.84-12.8 0-25.6 7.68-30.72 15.36-5.12 5.12-5.12 7.68-15.36 5.12-7.68-2.56-10.24-5.12-7.68-7.68 5.12-17.92 25.6-33.28 53.76-33.28zM681.718528 291.84c-33.28 0-58.88 25.6-61.44 56.32 0 2.56 7.68 2.56 10.24 2.56 5.12 0 10.24 0 12.8-2.56 0-20.48 17.92-35.84 38.4-35.84 12.8 0 25.6 7.68 30.72 15.36 5.12 5.12 5.12 7.68 15.36 5.12 7.68-2.56 10.24-5.12 7.68-7.68-7.68-17.92-28.16-33.28-53.76-33.28zM351.478528 128c125.44 0-74.24 151.04-74.24 84.48C277.238528 176.64 307.958528 128 351.478528 128zM725.238528 125.44c-125.44 0 74.24 151.04 74.24 84.48 0-35.84-30.72-84.48-74.24-84.48z" fill="#d4237a" p-id="16176"></path></svg>