<?xml version="1.0" standalone="no"?><!DOCTYPE svg PUBLIC "-//W3C//DTD SVG 1.1//EN" "http://www.w3.org/Graphics/SVG/1.1/DTD/svg11.dtd"><svg t="1742542845125" class="icon" viewBox="0 0 1024 1024" version="1.1" xmlns="http://www.w3.org/2000/svg" p-id="8190" xmlns:xlink="http://www.w3.org/1999/xlink" width="200" height="200"><path d="M806.4 849.066667H217.6c-72.533333 0-132.266667-59.733333-132.266667-132.266667V307.2c0-72.533333 59.733333-132.266667 132.266667-132.266667h588.8c72.533333 0 132.266667 59.733333 132.266667 132.266667v409.6c0 72.533333-59.733333 132.266667-132.266667 132.266667zM217.6 243.2c-34.133333 0-64 29.866667-64 64v409.6c0 34.133333 29.866667 64 64 64h588.8c34.133333 0 64-29.866667 64-64V307.2c0-34.133333-29.866667-64-64-64H217.6z" p-id="8191" fill="#d4237a"></path><path d="M426.666667 699.733333c-102.4 0-187.733333-85.333333-187.733334-187.733333 0-102.4 85.333333-187.733333 187.733334-187.733333 102.4 0 187.733333 85.333333 187.733333 187.733333 4.266667 102.4-81.066667 187.733333-187.733333 187.733333z m0-311.466666c-68.266667 0-123.733333 55.466667-123.733334 123.733333 0 68.266667 55.466667 123.733333 123.733334 123.733333 68.266667 0 123.733333-55.466667 123.733333-123.733333 0-68.266667-55.466667-123.733333-123.733333-123.733333zM780.8 366.933333h-68.266667c-12.8 0-25.6-12.8-25.6-25.6v-8.533333c0-12.8 12.8-25.6 25.6-25.6h68.266667c12.8 0 25.6 12.8 25.6 25.6V341.333333c0 12.8-12.8 25.6-25.6 25.6z" p-id="8192" fill="#d4237a"></path></svg>