<?xml version="1.0" standalone="no"?><!DOCTYPE svg PUBLIC "-//W3C//DTD SVG 1.1//EN" "http://www.w3.org/Graphics/SVG/1.1/DTD/svg11.dtd"><svg t="1742543228950" class="icon" viewBox="0 0 1024 1024" version="1.1" xmlns="http://www.w3.org/2000/svg" p-id="20314" xmlns:xlink="http://www.w3.org/1999/xlink" width="200" height="200"><path d="M972.8 594.944l51.2-88.576-135.68-77.312c10.752-8.192 21.504-16.896 31.744-26.112a611.328 611.328 0 0 0 102.4-118.784l-85.504-56.32a512 512 0 0 1-84.992 98.816A505.856 505.856 0 0 1 512 457.216a505.856 505.856 0 0 1-336.896-128.512A512 512 0 0 1 89.6 230.4L4.608 287.232a614.4 614.4 0 0 0 102.4 117.76c9.216 8.192 18.432 15.36 28.16 22.528L0 505.856l51.2 88.576 180.224-102.4a606.72 606.72 0 0 0 57.344 26.624l-105.472 181.248 88.576 51.2 117.76-204.8a607.744 607.744 0 0 0 70.656 10.24V768h102.4v-210.944a608.768 608.768 0 0 0 66.56-9.216l117.248 204.8 88.576-51.2-102.4-180.736a607.232 607.232 0 0 0 60.416-27.648z" fill="#d4237a" p-id="20315"></path></svg>